<svg width="90" height="83" viewBox="0 0 90 83" fill="none" xmlns="http://www.w3.org/2000/svg">
<mask id="mask0_69_1261" style="mask-type:luminance" maskUnits="userSpaceOnUse" x="0" y="0" width="90" height="83">
<path d="M0.905396 0.944336H89.2798V82.9992H0.905396V0.944336Z" fill="white"/>
</mask>
<g mask="url(#mask0_69_1261)">
<path d="M30.9753 50.042C25.8799 40.8902 22.4096 31.6248 20.9614 23.9347C19.218 14.6694 20.4505 7.58566 23.9608 5.47213C27.6195 3.26974 34.5407 5.82449 41.803 12.5294C47.2936 17.5986 52.9313 25.2238 57.7692 33.913C62.729 42.8222 66.4471 51.8479 67.8929 59.4441C69.7228 69.0568 68.2419 76.4009 64.6529 78.5617C61.1711 80.6582 54.7989 78.4387 48.0043 72.3591C42.2636 67.2219 36.1216 59.2853 30.9753 50.0408V50.042Z" stroke="#00D8FF" stroke-width="2.90543"/>
</g>
</svg>
